<svg fill="#444444" height="511pt" viewBox="1 -64 511.99849 511" width="511pt" xmlns="http://www.w3.org/2000/svg"><path d="m427.472656 166.460938c0-27.046876-20.117187-49.472657-46.175781-53.128907v-111.265625c-12.554687 3.683594-275.492187 80.761719-288.339844 84.527344h-62.71875l-30.238281 30.242188v99.25l30.238281 30.242187h62.71875c17.453125 5.117187 273.210938 80.09375 288.339844 84.527344v-111.265625c26.058594-3.65625 46.175781-26.082032 46.175781-53.128906zm-412.488281 43.421874v-15.597656h18.273437v-14.984375h-18.273437v-25.679687h18.273437v-14.980469h-18.273437v-15.601563l21.460937-21.460937h50.09375v129.765625h-50.09375zm86.539063-110.1875 216.1875-63.375v260.28125l-216.1875-63.375zm264.792968 211.152344-33.625-9.855468v-269.0625l33.625-9.855469zm14.980469-106.433594v-75.90625c17.757813 3.496094 31.191406 19.1875 31.191406 37.953126 0 18.765624-13.433593 34.457031-31.191406 37.953124zm0 0"/><path d="m461.871094 106.734375 48.964844-3.816406 1.164062 14.9375-48.964844 3.816406zm0 0"/><path d="m461.828125 194.285156 1.199219-14.933594 48.953125 3.933594-1.199219 14.933594zm0 0"/><path d="m424.628906 22.476562 74.96875-21.976562 4.214844 14.375-74.96875 21.976562zm0 0"/><path d="m424.628906 310.457031 4.214844-14.378906 74.96875 21.976563-4.214844 14.378906zm0 0"/><path d="m256.84375 319.882812c-9.941406 35.464844-46.730469 56.21875-82.285156 46.25-35.4375-9.9375-56.183594-46.851562-46.246094-82.289062l3.6875-13.152344-14.429688-4.042968-3.6875 13.148437c-12.164062 43.394531 13.238282 88.59375 56.632813 100.761719 43.011719 12.054687 88.4375-12.6875 100.757813-56.632813l3.214843-11.464843-14.429687-4.042969zm0 0"/><path d="m165.671875 280.566406-14.425781-4.046875-3.574219 12.753907c-6.941406 24.761718 7.554687 50.554687 32.316406 57.496093 24.875 6.972657 50.550781-7.542969 57.496094-32.316406l3.328125-11.863281-14.425781-4.042969-3.328125 11.859375c-4.722656 16.84375-22.175782 26.664062-39.027344 21.9375-16.8125-4.710938-26.648438-22.210938-21.933594-39.027344zm0 0"/><path d="m67.003906 206.414062h-14.984375v-29.964843h14.984375zm0-39.953124h-14.984375v-14.980469h14.984375zm0-24.96875h-14.984375v-14.984376h14.984375zm0 0"/></svg>