<?xml version="1.0"?>
<svg fill="#444444" xmlns="http://www.w3.org/2000/svg" id="Layer_1" data-name="Layer 1" viewBox="0 0 512 512" width="512" height="512"><title>ink pen</title><path d="M434.14,258.992a7,7,0,0,0-8.216-5.087c-16.338,3.439-43.853.512-71.8-7.639-27.263-7.95-50.587-19.449-65.149-32a20.5,20.5,0,0,0-2.813-25.318l-4.775-4.794a20.363,20.363,0,0,0-21.744-4.611c-4.812-10.207-13.965-28.976-25.9-50.446-24.137-43.42-47.571-76.775-69.649-98.936A7.1,7.1,0,0,0,159.129,28h0a7.1,7.1,0,0,0-4.961,2.166L21.569,163.55a7.033,7.033,0,0,0,.005,9.9c22.079,22.163,55.19,45.679,98.41,69.869,21.057,11.786,39.513,20.87,49.769,25.744a20.5,20.5,0,0,0,4.07,22.976l4.776,4.794a20.348,20.348,0,0,0,26.359,2.1c12.432,14.634,23.815,37.95,31.7,65.185,8.123,28.068,11.04,55.7,7.612,72.111a7,7,0,0,0,5.042,8.194l218.145,58.391a7,7,0,0,0,8.751-10.822l-.474-.475h0L347.757,363.06a7,7,0,0,0-7-1.753,15.712,15.712,0,0,1-15.748-3.955,15.948,15.948,0,0,1,0-22.471,15.728,15.728,0,0,1,22.313,0,15.945,15.945,0,0,1,3.614,16.845,7,7,0,0,0,1.591,7.41L480.032,487.125l0,0,.471.473a7,7,0,0,0,10.863-8.7ZM36.493,168.449,159.049,45.212c42.2,45.288,79.8,122.86,89.27,143.18l-69.3,69.566C158.718,248.436,81.561,210.781,36.493,168.449ZM193.02,288.815a6.308,6.308,0,0,1-4.5-1.859l-4.776-4.793a6.465,6.465,0,0,1-.159-8.937,6.968,6.968,0,0,0,2.547-1.622l75.837-76.122a6.948,6.948,0,0,0,1.486-2.259,6.4,6.4,0,0,1,8.012.813l4.775,4.794h0a6.466,6.466,0,0,1,0,9.112l-78.716,79.013A6.31,6.31,0,0,1,193.02,288.815Zm143.143,27.424h0A29.554,29.554,0,0,0,315.087,325a29.869,29.869,0,0,0,25.468,50.668l106.9,107.3L259.018,432.529c4.469-38.694-14.187-108.379-43.528-142.82l64.479-64.722c34.314,29.421,103.658,48.128,142.221,43.677l49.517,190.268L365.335,352.16a29.981,29.981,0,0,0-8.1-27.16A29.55,29.55,0,0,0,336.163,316.239Z"/></svg>
